<?xml version="1.0" standalone="no"?>
<!DOCTYPE svg PUBLIC "-//W3C//DTD SVG 20010904//EN"
 "http://www.w3.org/TR/2001/REC-SVG-20010904/DTD/svg10.dtd">
<svg version="1.0" xmlns="http://www.w3.org/2000/svg"
 width="600.000000pt" height="600.000000pt" viewBox="0 0 600.000000 600.000000"
 preserveAspectRatio="xMidYMid meet">
<metadata>
Created by potrace 1.16, written by Peter Selinger 2001-2019
</metadata>
<g transform="translate(0.000000,600.000000) scale(0.100000,-0.100000)"
fill="#000000" stroke="none">
<path d="M70 3005 l0 -705 710 0 710 0 0 705 0 705 -710 0 -710 0 0 -705z
m928 546 c178 -46 304 -180 347 -366 22 -94 15 -112 -18 -43 -33 68 -100 145
-163 187 -44 29 -46 29 -87 15 -143 -51 -280 -209 -331 -384 -35 -119 -30
-284 11 -364 l15 -29 76 6 c128 10 273 64 356 134 45 38 42 19 -5 -36 -93
-106 -225 -186 -357 -217 -90 -21 -236 -15 -314 13 -69 25 -161 89 -204 141
-64 77 -115 209 -113 292 0 34 1 34 11 10 40 -91 59 -121 108 -170 31 -30 79
-68 108 -83 132 -72 360 -117 288 -58 -26 22 -76 148 -87 223 -33 206 75 419
255 508 37 18 89 35 116 38 28 2 50 8 50 13 0 4 -23 15 -52 24 -226 67 -477
30 -632 -94 -22 -17 -41 -29 -44 -26 -10 10 92 117 151 159 83 59 135 84 220
106 93 25 204 25 295 1z"/>
<path d="M2593 3192 l-33 -3 0 -235 0 -234 40 0 40 0 0 59 c0 39 5 63 14 71
12 9 23 -1 62 -59 l47 -71 49 0 49 0 -56 78 c-89 123 -88 113 -21 181 32 32
54 60 49 63 -7 3 -41 3 -80 -1 -6 0 -33 -31 -60 -67 l-48 -66 -3 138 c-1 76
-6 141 -10 144 -4 3 -22 4 -39 2z"/>
<path d="M3312 3191 l-34 -6 1 -195 c0 -304 -6 -270 41 -270 l40 0 0 113 c0
119 2 127 37 146 31 16 41 14 68 -14 24 -23 25 -31 25 -135 l0 -110 40 0 40 0
0 115 c0 126 -12 171 -51 199 -32 22 -87 20 -126 -4 l-33 -20 0 90 c0 49 -3
90 -7 92 -5 2 -23 2 -41 -1z"/>
<path d="M1680 3135 l0 -35 65 0 65 0 0 -190 0 -190 40 0 40 0 0 190 0 190 65
0 65 0 0 35 0 35 -170 0 -170 0 0 -35z"/>
<path d="M3640 2945 l0 -225 130 0 130 0 0 30 0 29 -92 3 -93 3 0 65 0 65 83
3 82 3 0 29 0 29 -82 3 -83 3 0 60 0 60 88 3 87 3 0 29 0 30 -125 0 -125 0 0
-225z"/>
<path d="M5248 3119 c-12 -6 -18 -22 -18 -44 0 -28 -4 -35 -20 -35 -15 0 -20
-7 -20 -25 0 -18 5 -25 20 -25 11 0 20 -3 20 -7 5 -224 4 -211 31 -239 21 -21
36 -26 69 -26 24 1 46 6 50 13 13 21 -1 49 -25 49 -38 0 -46 21 -43 117 l3 88
38 3 c32 3 37 7 37 28 0 21 -4 24 -40 24 l-40 0 0 45 c0 40 -2 45 -22 45 -13
0 -31 -5 -40 -11z"/>
<path d="M2214 3043 c-5 -2 -8 -46 -7 -99 1 -53 -2 -107 -7 -120 -12 -30 -50
-49 -84 -40 -33 8 -46 55 -46 169 l0 87 -40 0 -40 0 0 -102 c0 -121 10 -166
46 -199 34 -32 100 -33 143 -1 37 27 41 27 41 2 0 -16 7 -20 35 -20 l35 0 0
159 0 159 -34 4 c-19 2 -38 2 -42 1z"/>
<path d="M2354 3043 c-5 -2 -8 -73 -6 -163 l3 -160 39 0 40 0 0 105 c0 99 2
107 25 130 13 14 36 25 50 25 22 0 25 4 25 35 0 31 -3 35 -26 35 -15 0 -38
-12 -55 -29 -29 -29 -29 -29 -29 -6 0 17 -7 24 -28 27 -16 2 -33 3 -38 1z"/>
<path d="M2913 3042 l-33 -3 0 -160 0 -159 40 0 40 0 0 159 c0 88 -3 161 -7
163 -5 2 -23 2 -40 0z"/>
<path d="M3075 3041 c-30 -13 -54 -43 -61 -77 -7 -38 31 -87 80 -104 99 -32
68 -112 -32 -82 -19 6 -39 9 -44 6 -15 -10 -8 -53 10 -58 78 -22 137 -14 178
25 18 17 24 33 24 64 0 49 -21 72 -92 103 -35 15 -48 26 -48 42 0 28 39 42 81
30 38 -11 36 -12 44 21 5 22 3 27 -17 33 -32 8 -99 6 -123 -3z"/>
<path d="M4393 3034 c-18 -9 -33 -20 -33 -25 0 -5 -4 -9 -10 -9 -5 0 -10 9
-10 20 0 16 -7 20 -35 20 l-35 0 0 -225 0 -225 40 0 40 0 0 80 c0 44 3 80 7
80 3 0 15 -7 25 -17 26 -23 102 -22 135 3 46 35 66 70 71 127 5 67 -10 115
-47 151 -37 36 -101 44 -148 20z m88 -63 c18 -14 23 -31 27 -79 4 -58 3 -63
-27 -93 -27 -26 -37 -30 -64 -25 -49 9 -67 38 -67 108 0 49 4 63 25 83 29 30
73 33 106 6z"/>
<path d="M4715 3036 c-73 -32 -111 -124 -85 -209 21 -73 71 -109 150 -109 106
0 182 90 166 195 -17 106 -131 167 -231 123z m113 -61 c73 -61 39 -205 -48
-205 -84 0 -109 173 -32 215 37 20 46 19 80 -10z"/>
<path d="M5091 3019 l-31 -31 0 26 c0 23 -4 26 -35 26 l-35 0 0 -160 0 -160
40 0 40 0 0 105 c0 99 2 107 25 130 13 14 36 25 50 25 22 0 25 4 25 35 0 30
-3 35 -24 35 -14 0 -38 -13 -55 -31z"/>
<path d="M5495 3036 c-114 -52 -129 -223 -25 -293 26 -18 47 -23 101 -23 84 0
99 6 99 37 0 25 -1 25 -51 19 -66 -9 -115 7 -134 44 -8 15 -11 30 -8 34 4 3
53 6 109 6 93 0 103 2 109 20 9 30 -13 97 -44 132 -22 25 -37 31 -77 34 -29 3
-61 -1 -79 -10z"/>
<path d="M5841 3020 c-29 -30 -47 -27 -35 4 5 13 -1 16 -30 16 l-36 0 0 -160
0 -160 40 0 40 0 0 105 c0 99 2 107 25 130 13 14 36 25 50 25 22 0 25 4 25 35
0 30 -3 35 -24 35 -14 0 -38 -13 -55 -30z"/>
<path d="M3940 3034 c0 -3 21 -36 47 -73 25 -36 46 -70 46 -76 0 -5 -23 -44
-52 -85 l-52 -75 31 -3 c47 -5 57 2 85 58 14 27 29 50 34 50 5 0 24 -25 42
-55 31 -51 36 -55 71 -55 21 0 38 4 38 9 0 6 -21 40 -47 78 -25 37 -46 73 -46
79 0 5 18 37 40 70 60 89 59 84 14 84 -37 0 -42 -3 -68 -50 -15 -27 -31 -50
-34 -50 -4 0 -21 23 -39 50 -29 46 -35 50 -71 50 -21 0 -39 -3 -39 -6z"/>
</g>
</svg>
